<svg id="Layer_1" data-name="Layer 1" xmlns="http://www.w3.org/2000/svg" width="198" height="78" viewBox="0 0 198 78">
  <title>logo</title>
  <g>
    <path d="M96.17,68.75c1.12-20,2.32-40.07,3.29-60.11C99.86.45,98.72,1,110,1c2.59,0,5.2.09,7.78,0,3.42-.13,5.06.75,4.89,3.44-.43,7.08-.59,14.16-1,21.24-.4,7.27-1,14.54-1.39,21.82-.44,8.37-.66,16.76-1.09,25.13-.26,5.07-.57,5.22-7.31,5.22-4,0-7.93-.08-11.88,0C97.12,78,96,77,96.09,75s0-4.2,0-6.29Z" transform="translate(-1 -1)"/>
    <path d="M1,75.91c0-3.8.05-7,0-10.14-.07-3.47.73-6.6,4.34-9.25,2.27-1.65,1.56-3.77.26-5.84-3.84-6.08-3-10.42,2.93-14.93C13.47,32,20,32.45,26.09,33c4.8.44,9.39,2,14.14,2.9,1.18.22,2.6-.37,3.93-.45a17.27,17.27,0,0,1,5.09.06c.54.14.37,2,.28,3-.18,2.06-.57,4.12-.79,6.19-.11,1,.45,2.22-.16,2.95-3.6,4.28-1.16,8.34.25,12.54,2.05,6.05-1.14,11-7.53,14.67a22.46,22.46,0,0,1-20,1.32,50.79,50.79,0,0,0-9-2.45,13,13,0,0,0-4.61.5C5.49,74.74,3.33,75.34,1,75.91Zm32.1-27c6,2,9.83,1.67,11.23-.8,1-1.85-.69-4.74-3.26-5.41S34.42,45.14,33.12,48.88ZM13.36,70.7c5.12-.63,6.38-1.44,6.57-4.15.18-2.41-1.71-3.19-4.49-3.26C12.13,63.22,8,65.7,8.68,67.78,9.08,69,11.73,69.74,13.36,70.7Z" transform="translate(-1 -1)"/>
    <path d="M93.87,61.28a71.15,71.15,0,0,1-.08,8.78c-.34,2.66-1.93,4.94-6,5.61-4.39.73-8.72,1.86-13.16,2.14-9.47.59-15.95-3.1-19.87-9-6.35-9.54-6.15-19.2,2.19-28,6.28-6.63,16.2-9.7,27.22-7.33,4.92,1.06,8.55,3.7,9.72,7.54,2,6.5,1.54,12.7-6.1,17.37-2.16,1.33-4.93,2.12-7.47,3.17C84.52,64.38,88.91,60.71,93.87,61.28ZM75.82,49.88l.91.95c2.56-.1,5.25.1,7.63-.42,1.45-.32,3.22-1.7,3.4-2.74a3.83,3.83,0,0,0-2.2-3.43,7.12,7.12,0,0,0-5.12.42C78.47,46.09,77.31,48.11,75.82,49.88Z" transform="translate(-1 -1)"/>
    <path d="M165.27,61c0,4.17.12,7.85-.09,11.52a3.37,3.37,0,0,1-2,2.35,53.23,53.23,0,0,1-7.63,2.5c-6.91,1.72-13.45,2-20.25-1-7.78-3.41-11.06-8.63-12.4-14.53-1.7-7.52-.71-15,6.17-21.21,6.46-5.82,15.11-8.54,25.41-7.09,10.83,1.53,15.67,12.39,8.26,18.32-1,.8-3.18.79-4.82,1.15a13.18,13.18,0,0,1,.78-3.35c.53-1,2.36-2,2.22-2.89-.22-1.43-1.11-3.38-2.59-4-2.92-1.21-5.86.2-7.94,1.72-6.27,4.55-4.65,14.59,3,18,1.51.67,4,.39,6,.16A38.94,38.94,0,0,0,165.27,61Z" transform="translate(-1 -1)"/>
    <path d="M171.75,30.93c5.07-.2,9.39-.5,13.71-.5,4.8,0,6.65,1.22,6.1,4.75a33.19,33.19,0,0,1-3.44,10.33c-5.58,10.46-6.91,20.8.19,31.17a2.77,2.77,0,0,1,.24,1A99.24,99.24,0,0,1,177.88,79c-8.53.19-13-3.14-11-8.85,2.23-6.54,4.61-13,6.8-19.6C175.8,44.14,176.37,37.77,171.75,30.93Z" transform="translate(-1 -1)"/>
    <path d="M173.46,16.84a11.74,11.74,0,0,1,5.48-11.07c6.85-4.71,15.15-2.31,18.27,3.19,2.75,4.85,2.24,9.75-.91,14.43-2.75,4.08-8.27,6.07-13.68,5.17-4.15-.69-8.74-5.18-9.15-9A26.81,26.81,0,0,1,173.46,16.84Z" transform="translate(-1 -1)"/>
  </g>
</svg>

